<?xml version="1.0"?>
<svg xmlns="http://www.w3.org/2000/svg" viewBox="0 0 64 64" width="512px" height="512px"><g><g id="gramphone"><path d="M60,56H57V53h3a3,3,0,0,0,0-6H57V38H50V36a3,3,0,0,1,3-3h1.142a4,4,0,1,0,0-2H53a5.006,5.006,0,0,0-5,5v2H29V36a3,3,0,0,1,3-3h9a9,9,0,0,0,0-18H29.988L8.764,4.266A3.493,3.493,0,0,0,2,5.5v25a3.493,3.493,0,0,0,6.764,1.234L29.988,21H41a3,3,0,0,1,0,6H32a9.01,9.01,0,0,0-9,9v2H7v9H5a3,3,0,0,0,0,6H7v3H5a3,3,0,0,0,0,6H60a3,3,0,0,0,0-6ZM58,30a2,2,0,1,1-2,2A2,2,0,0,1,58,30ZM5.5,32A1.5,1.5,0,0,1,4,30.5V5.5a1.5,1.5,0,0,1,3,0v25A1.5,1.5,0,0,1,5.5,32ZM25,36a7.009,7.009,0,0,1,7-7h9a5,5,0,0,0,0-10H29.512L9,29.374V6.626L29.512,17H41a7,7,0,0,1,0,14H32a5.006,5.006,0,0,0-5,5v2H25ZM9,40H55v7H9ZM4,50a1,1,0,0,1,1-1H60a1,1,0,0,1,0,2H5A1,1,0,0,1,4,50Zm5,3H55v3H9Zm51,7H5a1,1,0,0,1,0-2H60a1,1,0,0,1,0,2Z" data-original="#000000" class="active-path" data-old_color="#ffFFFF" fill="#FFFFFF"/><path d="M47,12a2.988,2.988,0,0,0,2.121-.877c.059-.059.1-.127.155-.189l.189.189,6.363-6.364L60.071,9l-3.2,3.2a2.953,2.953,0,0,0-.754-1.317,3,3,0,1,0,0,4.242c.029-.029.049-.064.077-.094l.337.337L62.9,9,55.828,1.929,49.8,7.954A3,3,0,1,0,47,12Zm7.707,1.709a1,1,0,1,1,0-1.414A1,1,0,0,1,54.707,13.707ZM46.293,8.293a1,1,0,1,1,0,1.414A1,1,0,0,1,46.293,8.293Z" data-original="#000000" class="active-path" data-old_color="#ffFFFF" fill="#FFFFFF"/><rect x="52" y="41" width="2" height="2" data-original="#000000" class="active-path" data-old_color="#ffFFFF" fill="#FFFFFF"/><rect x="52" y="44" width="2" height="2" data-original="#000000" class="active-path" data-old_color="#ffFFFF" fill="#FFFFFF"/><rect x="49" y="41" width="2" height="2" data-original="#000000" class="active-path" data-old_color="#ffFFFF" fill="#FFFFFF"/></g><head class="active-path" style="fill:#FFFFFF" data-old_color="#ffFFFF"/></g> </svg>
