<?xml version="1.0"?>
<svg xmlns="http://www.w3.org/2000/svg" xmlns:xlink="http://www.w3.org/1999/xlink" version="1.1" id="Capa_1" x="0px" y="0px" viewBox="0 0 480 480" style="enable-background:new 0 0 480 480;" xml:space="preserve" width="512px" height="512px" class=""><g><g>
	<g>
		<path d="M376,232c-48.577-0.057-87.943-39.423-88-88C288,64.471,223.529,0,144,0S0,64.471,0,144v280c0,4.418,3.582,8,8,8h24    c0,4.418,3.582,8,8,8h128v32c0,4.418,3.582,8,8,8h128c4.418,0,8-3.582,8-8v-32h128c4.418,0,8-3.582,8-8h24c4.418,0,8-3.582,8-8    v-88C479.934,278.59,433.41,232.066,376,232z M296,464H184v-24h112V464z M432,424H48v-48h16v32h16v-32h16v32h16v-32h16v32h16v-32    h32v32h16v-32h16v32h16v-32h32v32h16v-32h16v32h16v-32h16v32h16v-32h32v32h16v-32h16v32h16v-32h16V424z M464,416h-16v-48    c0-4.418-3.582-8-8-8H40c-4.418,0-8,3.582-8,8v48H16V144C16,73.308,73.308,16,144,16s128,57.308,128,128    c0.066,57.41,46.59,103.934,104,104c48.577,0.057,87.943,39.423,88,88V416z" data-original="#000000" class="active-path" data-old_color="#000000" fill="#FFFFFF"/>
	</g>
</g><g>
	<g>
		<path d="M431.384,68.944c-0.399-0.976-0.989-1.863-1.736-2.608l-48-48c-3.129-3.119-8.194-3.111-11.314,0.018    C368.84,19.853,368,21.883,368,24v66.4c-3.805-1.576-7.882-2.391-12-2.4c-14.325-1-26.797,9.691-28,24    c2.403,15.464,16.887,26.052,32.351,23.649C372.542,133.755,382.106,124.191,384,112V83.312l32,32V138.4    c-3.805-1.576-7.882-2.391-12-2.4c-14.325-1-26.797,9.691-28,24c2.403,15.464,16.887,26.052,32.351,23.649    C420.542,181.755,430.106,172.191,432,160V72C431.995,70.951,431.786,69.913,431.384,68.944z M356,120c-6.4,0-12-3.744-12-8    s5.6-8,12-8c6.4,0,12,3.744,12,8S362.4,120,356,120z M404,168c-6.4,0-12-3.744-12-8s5.6-8,12-8c6.4,0,12,3.744,12,8    S410.4,168,404,168z M416,92.688l-32-32V43.312l32,32V92.688z" data-original="#000000" class="active-path" data-old_color="#000000" fill="#FFFFFF"/>
	</g>
</g><g>
	<g>
		<path d="M189.656,226.344l-40-40c-3.125-3.124-8.19-3.123-11.314,0.002c-1.499,1.5-2.342,3.534-2.342,5.654v50.4    c-3.805-1.576-7.882-2.391-12-2.4c-14.325-1-26.797,9.691-28,24c1.203,14.309,13.675,25,28,24c14.325,1,26.797-9.691,28-24    v-52.688l26.344,26.344c3.178,3.069,8.243,2.981,11.312-0.197C192.65,234.359,192.65,229.444,189.656,226.344z M124,272    c-6.4,0-12-3.744-12-8c0-4.256,5.6-8,12-8c6.4,0,12,3.744,12,8C136,268.256,130.4,272,124,272z" data-original="#000000" class="active-path" data-old_color="#000000" fill="#FFFFFF"/>
	</g>
</g><head class="active-path" style="fill:#FFFFFF" data-old_color="#000000"/></g> </svg>
